<svg width="16" height="32" viewBox="0 0 16 32" fill="none" xmlns="http://www.w3.org/2000/svg">
<path d="M5.11655 17.6188C4.69757 17.1895 4.4622 16.6072 4.4622 16C4.4622 15.3928 4.69757 14.8105 5.11655 14.3812L15.3637 3.88044C15.7708 3.44859 15.9961 2.8702 15.991 2.26984C15.9859 1.66948 15.7508 1.09518 15.3365 0.670648C14.9221 0.246113 14.3615 0.00530353 13.7756 8.65576e-05C13.1896 -0.00513042 12.625 0.225663 12.2035 0.642756L1.96307 11.1435C0.706117 12.4316 0 14.1785 0 16C0 17.8215 0.706117 19.5684 1.96307 20.8565L12.2124 31.3572C12.634 31.7743 13.1985 32.0051 13.7845 31.9999C14.3705 31.9947 14.931 31.7539 15.3454 31.3293C15.7598 30.9048 15.9948 30.3305 15.9999 29.7302C16.005 29.1298 15.7797 28.5514 15.3726 28.1196L5.11655 17.6188Z" fill="#878787" fill-opacity="0.2"/>
</svg>
