<svg width="16" height="32" viewBox="0 0 16 32" fill="none" xmlns="http://www.w3.org/2000/svg">
<path d="M10.8834 14.3812C11.3024 14.8105 11.5378 15.3928 11.5378 16C11.5378 16.6072 11.3024 17.1895 10.8834 17.6188L0.636308 28.1196C0.229199 28.5514 0.00393079 29.1298 0.00902347 29.7302C0.0141152 30.3305 0.249162 30.9048 0.663535 31.3294C1.07791 31.7539 1.63846 31.9947 2.22445 31.9999C2.81044 32.0051 3.37498 31.7743 3.7965 31.3572L14.0369 20.8565C15.2939 19.5684 16 17.8215 16 16C16 14.1785 15.2939 12.4316 14.0369 11.1435L3.78755 0.642757C3.36604 0.225663 2.80149 -0.00512961 2.2155 8.89431e-05C1.62951 0.00530559 1.06897 0.246116 0.654592 0.670652C0.240218 1.09519 0.00517389 1.66948 8.13242e-05 2.26984C-0.00501124 2.8702 0.220257 3.44859 0.627367 3.88044L10.8834 14.3812Z" fill="#878787" fill-opacity="0.2"/>
</svg>
