<svg width="44" height="44" viewBox="0 0 44 44" fill="none" xmlns="http://www.w3.org/2000/svg">
<path fill-rule="evenodd" clip-rule="evenodd" d="M28.6667 23.6666C28.6667 27.3485 25.6819 30.3333 22 30.3333C18.3181 30.3333 15.3333 27.3485 15.3333 23.6666C15.3333 19.9847 18.3181 17 22 17C23.7681 17 25.4638 17.7023 26.7141 18.9526C27.9643 20.2028 28.6667 21.8985 28.6667 23.6666Z" stroke="#3C3C43" stroke-opacity="0.3" stroke-width="2.5" stroke-linecap="round" stroke-linejoin="round"/>
<path d="M17 13.25C17.6904 13.25 18.25 12.6903 18.25 12C18.25 11.3096 17.6904 10.75 17 10.75V13.25ZM27 10.75C26.3097 10.75 25.75 11.3096 25.75 12C25.75 12.6903 26.3097 13.25 27 13.25V10.75ZM17 10.75C16.3097 10.75 15.75 11.3096 15.75 12C15.75 12.6904 16.3097 13.25 17 13.25V10.75ZM27 13.25C27.6904 13.25 28.25 12.6904 28.25 12C28.25 11.3096 27.6904 10.75 27 10.75V13.25ZM18.2501 12C18.2501 11.3096 17.6904 10.75 17.0001 10.75C16.3097 10.75 15.7501 11.3096 15.7501 12H18.2501ZM15.7501 13.6666C15.7501 14.357 16.3097 14.9166 17.0001 14.9166C17.6904 14.9166 18.2501 14.357 18.2501 13.6666H15.7501ZM15.7501 12C15.7501 12.6904 16.3097 13.25 17.0001 13.25C17.6904 13.25 18.2501 12.6904 18.2501 12H15.7501ZM18.2501 8.66667C18.2501 7.97631 17.6904 7.41667 17.0001 7.41667C16.3097 7.41667 15.7501 7.97631 15.7501 8.66667H18.2501ZM28.2501 12C28.2501 11.3096 27.6904 10.75 27.0001 10.75C26.3097 10.75 25.7501 11.3096 25.7501 12H28.2501ZM25.7501 13.6666C25.7501 14.357 26.3097 14.9166 27.0001 14.9166C27.6904 14.9166 28.2501 14.357 28.2501 13.6666H25.7501ZM25.7501 12C25.7501 12.6904 26.3097 13.25 27.0001 13.25C27.6904 13.25 28.2501 12.6904 28.2501 12H25.7501ZM28.2501 8.66667C28.2501 7.97631 27.6904 7.41667 27.0001 7.41667C26.3097 7.41667 25.7501 7.97631 25.7501 8.66667H28.2501ZM22.2983 21.7618C22.2983 21.0714 21.7386 20.5118 21.0483 20.5118C20.3579 20.5118 19.7983 21.0714 19.7983 21.7618H22.2983ZM21.0483 24.6184H19.7983C19.7983 25.3088 20.3579 25.8684 21.0483 25.8684V24.6184ZM23.9049 25.8684C24.5953 25.8684 25.1549 25.3088 25.1549 24.6184C25.1549 23.9281 24.5953 23.3684 23.9049 23.3684V25.8684ZM17 10.75C12.6278 10.75 9.08334 14.2944 9.08334 18.6666H11.5833C11.5833 15.6751 14.0085 13.25 17 13.25V10.75ZM9.08334 18.6666V28.6666H11.5833V18.6666H9.08334ZM9.08334 28.6666C9.08334 33.0389 12.6278 36.5833 17 36.5833V34.0833C14.0085 34.0833 11.5833 31.6582 11.5833 28.6666H9.08334ZM17 36.5833H27V34.0833H17V36.5833ZM27 36.5833C31.3723 36.5833 34.9167 33.0389 34.9167 28.6666H32.4167C32.4167 31.6582 29.9916 34.0833 27 34.0833V36.5833ZM34.9167 28.6666V18.6666H32.4167V28.6666H34.9167ZM34.9167 18.6666C34.9167 14.2944 31.3723 10.75 27 10.75V13.25C29.9916 13.25 32.4167 15.6751 32.4167 18.6666H34.9167ZM17 13.25H27V10.75H17V13.25ZM15.7501 12V13.6666H18.2501V12H15.7501ZM18.2501 12V8.66667H15.7501V12H18.2501ZM25.7501 12V13.6666H28.2501V12H25.7501ZM28.2501 12V8.66667H25.7501V12H28.2501ZM19.7983 21.7618V24.6184H22.2983V21.7618H19.7983ZM21.0483 25.8684H23.9049V23.3684H21.0483V25.8684Z" fill="#3C3C43" fill-opacity="0.3"/>
</svg>
