<svg width="44" height="44" viewBox="0 0 44 44" fill="none" xmlns="http://www.w3.org/2000/svg">
<path d="M31.2815 19.0083C31.4715 19.672 32.1636 20.0561 32.8273 19.8661C33.491 19.6761 33.875 18.984 33.685 18.3203L31.2815 19.0083ZM29.6499 13.7477L30.5501 12.8804L30.5492 12.8794L29.6499 13.7477ZM23.8516 10.556L24.1042 9.33179L24.1018 9.33131L23.8516 10.556ZM17.3166 11.2227L16.8242 10.0737L16.823 10.0743L17.3166 11.2227ZM12.2399 15.516L11.1894 14.8386L11.1894 14.8386L12.2399 15.516ZM13.6466 30.2477L14.5505 29.3843L14.55 29.3837L13.6466 30.2477ZM27.9283 31.6993L28.64 32.727L28.6403 32.7268L27.9283 31.6993ZM33.256 26.9256C33.5117 26.2844 33.1992 25.5572 32.5579 25.3016C31.9166 25.0459 31.1895 25.3585 30.9338 25.9997L33.256 26.9256ZM31.2733 18.3499C31.0997 19.018 31.5006 19.7005 32.1687 19.8741C32.8369 20.0478 33.5193 19.6469 33.693 18.9787L31.2733 18.3499ZM34.8763 14.4254C35.0499 13.7572 34.6491 13.0748 33.9809 12.9011C33.3127 12.7275 32.6303 13.1284 32.4567 13.7966L34.8763 14.4254ZM32.1502 19.8691C32.8157 20.053 33.5042 19.6626 33.688 18.9972C33.8719 18.3318 33.4815 17.6433 32.8161 17.4594L32.1502 19.8691ZM28.4011 16.2394C27.7357 16.0555 27.0472 16.4459 26.8633 17.1113C26.6795 17.7768 27.0698 18.4652 27.7352 18.6491L28.4011 16.2394ZM21.5833 18.6644C21.5833 17.974 21.0237 17.4144 20.3333 17.4144C19.6429 17.4144 19.0833 17.974 19.0833 18.6644H21.5833ZM20.3333 23.6644H19.0833C19.0833 24.3547 19.6429 24.9144 20.3333 24.9144V23.6644ZM25.3333 24.9144C26.0237 24.9144 26.5833 24.3547 26.5833 23.6644C26.5833 22.974 26.0237 22.4144 25.3333 22.4144V24.9144ZM33.685 18.3203C33.1004 16.278 32.024 14.4102 30.5501 12.8804L28.7498 14.6149C29.9401 15.8505 30.8094 17.359 31.2815 19.0083L33.685 18.3203ZM30.5492 12.8794C28.8069 11.0751 26.5606 9.83859 24.1042 9.33179L23.599 11.7802C25.5626 12.1853 27.3581 13.1737 28.7507 14.6159L30.5492 12.8794ZM24.1018 9.33131C21.657 8.83176 19.1179 9.09079 16.8242 10.0737L17.809 12.3716C19.6345 11.5893 21.6555 11.3831 23.6014 11.7807L24.1018 9.33131ZM16.823 10.0743C14.5133 11.067 12.5519 12.7257 11.1894 14.8386L13.2904 16.1934C14.3836 14.4984 15.9572 13.1676 17.8102 12.3711L16.823 10.0743ZM11.1894 14.8386C7.88091 19.9694 8.52357 26.6997 12.7433 31.1117L14.55 29.3837C11.1296 25.8076 10.6087 20.3522 13.2905 16.1934L11.1894 14.8386ZM12.7427 31.1111C16.9227 35.4871 23.6649 36.1724 28.64 32.727L27.2166 30.6717C23.2527 33.4169 17.8809 32.8709 14.5505 29.3843L12.7427 31.1111ZM28.6403 32.7268C30.7155 31.2886 32.3209 29.2709 33.256 26.9256L30.9338 25.9997C30.1807 27.8886 28.8877 29.5137 27.2163 30.6719L28.6403 32.7268ZM33.693 18.9787L34.8763 14.4254L32.4567 13.7966L31.2733 18.3499L33.693 18.9787ZM32.8161 17.4594L28.4011 16.2394L27.7352 18.6491L32.1502 19.8691L32.8161 17.4594ZM19.0833 18.6644V23.6644H21.5833V18.6644H19.0833ZM20.3333 24.9144H25.3333V22.4144H20.3333V24.9144Z" fill="#3C3C43" fill-opacity="0.3"/>
</svg>
