<svg width="18" height="24" viewBox="0 0 18 24" fill="none" xmlns="http://www.w3.org/2000/svg">
<path d="M17.5855 14.6142L16.4154 12.6719C16.1697 12.239 15.9474 11.4199 15.9474 10.9402V7.9799C15.9474 5.23023 14.3327 2.85498 12.0043 1.74341C11.3958 0.666942 10.2725 0 8.98546 0C7.71008 0 6.56341 0.690344 5.95497 1.77851C3.67332 2.91348 2.09373 5.26533 2.09373 7.9799V10.9402C2.09373 11.4199 1.87141 12.239 1.6257 12.6602L0.443921 14.6142C-0.0241081 15.3982 -0.129415 16.264 0.163103 17.0597C0.443921 17.8436 1.11086 18.4521 1.97672 18.7446C4.24666 19.5168 6.63361 19.8913 9.02056 19.8913C11.4075 19.8913 13.7945 19.5168 16.0644 18.7563C16.8835 18.4872 17.5153 17.867 17.8195 17.0597C18.1237 16.2523 18.0418 15.3631 17.5855 14.6142Z" fill="white"/>
<path d="M12.3085 21.073C11.817 22.4303 10.5182 23.4015 8.99715 23.4015C8.07279 23.4015 7.16014 23.0271 6.5166 22.3601C6.14217 22.0091 5.86135 21.5411 5.69754 21.0613C5.84965 21.0847 6.00176 21.0964 6.16557 21.1198C6.43469 21.1549 6.71551 21.19 6.99633 21.2134C7.66327 21.2719 8.34191 21.307 9.02055 21.307C9.6875 21.307 10.3544 21.2719 11.0097 21.2134C11.2554 21.19 11.5011 21.1783 11.7351 21.1432C11.9223 21.1198 12.1095 21.0964 12.3085 21.073Z" fill="white"/>
</svg>
